<svg version="1.1" id="Layer_1" xmlns="http://www.w3.org/2000/svg" xmlns:xlink="http://www.w3.org/1999/xlink" x="0px" y="0px"
	 width="100%" viewBox="0 0 500 211" enable-background="new 0 0 500 211" xml:space="preserve">
<path fill="none" opacity="1.000000" stroke="none" 
	d="
M379.000000,212.000000 
	C252.666687,212.000000 126.833382,212.000000 1.000051,212.000000 
	C1.000034,141.666702 1.000034,71.333405 1.000017,1.000079 
	C167.666611,1.000053 334.333221,1.000053 500.999878,1.000026 
	C500.999908,71.333260 500.999908,141.666519 500.999939,211.999878 
	C460.500000,212.000000 420.000000,212.000000 379.000000,212.000000 
M124.815506,91.809822 
	C124.815506,91.809822 124.510674,91.524025 124.580505,90.775612 
	C125.858017,87.178192 127.459595,83.651154 128.263123,79.950806 
	C128.614136,78.334297 127.881577,75.764229 126.686462,74.666519 
	C123.265976,71.524796 118.220016,70.244072 116.324806,65.260139 
	C116.056114,64.553551 114.397156,64.375626 113.489662,63.997959 
	C106.680145,71.802475 106.594658,72.742355 112.453598,79.077042 
	C105.661140,83.762169 99.001305,88.502350 92.160156,92.964561 
	C90.582733,93.993439 88.396004,94.391953 86.466766,94.463531 
	C85.312752,94.506348 84.114273,93.351173 82.935768,92.734489 
	C83.633026,91.610443 84.068329,90.074074 85.073853,89.435265 
	C88.979568,86.953934 93.396759,85.167007 96.955833,82.294342 
	C98.930809,80.700264 100.999916,77.149307 100.523277,75.048241 
	C99.682510,71.341972 96.596558,68.751968 92.024353,68.820404 
	C81.499619,68.977921 70.597832,80.332947 71.023949,90.907578 
	C71.237289,96.201874 77.024605,100.893074 82.247223,100.391129 
	C90.608765,99.587502 97.095367,95.202682 103.416176,90.194771 
	C107.656898,86.834892 112.216270,83.877213 117.721817,79.966133 
	C116.262703,84.521614 114.805511,87.720108 114.324829,91.059189 
	C114.017723,93.192390 114.499153,96.068481 115.795944,97.657669 
	C117.807396,100.122665 120.909225,100.498695 123.831886,98.441742 
	C127.084114,96.152855 130.353043,93.887711 134.059647,92.048569 
	C134.213898,92.187691 134.368164,92.326805 134.559372,93.133804 
	C135.807343,99.696526 138.376587,101.070564 144.017731,97.876663 
	C147.587189,95.855705 150.938782,93.449966 154.455353,91.173256 
	C156.236633,100.775108 160.304398,102.365456 168.382736,96.626747 
	C171.718109,94.257362 174.790878,91.518341 178.073135,88.874908 
	C179.965012,94.654236 185.577225,100.844322 188.686920,99.649399 
	C193.684753,97.728943 198.177414,94.493797 202.755356,91.887146 
	C203.690826,100.174080 206.521164,101.630676 213.889450,96.986557 
	C217.503357,94.708748 220.863846,92.028839 224.449860,89.451248 
	C224.856827,97.232971 231.202133,102.998550 239.202408,97.017151 
	C243.829025,93.558044 248.229340,89.796234 252.731506,86.170654 
	C252.480621,85.497658 252.229736,84.824669 251.978851,84.151672 
	C250.621735,84.386681 248.985428,84.217949 247.957413,84.928864 
	C244.165375,87.551247 240.574631,90.464706 236.908173,93.268700 
	C236.509460,83.684341 237.638657,75.799644 244.264587,69.040115 
	C252.973328,60.155796 261.059814,50.552734 265.312164,38.424324 
	C266.522644,34.971844 264.669189,33.066010 262.536102,31.125359 
	C260.375916,29.160078 257.787659,28.247656 255.383514,30.289274 
	C251.736755,33.386127 247.616562,36.344593 245.092789,40.260994 
	C239.104324,49.553947 233.935532,59.375114 228.355972,69.121635 
	C221.434921,68.313423 216.758316,73.248550 211.709198,77.510765 
	C206.301758,82.075462 200.829269,86.566696 195.280777,90.958107 
	C193.947433,92.013397 192.201553,92.547424 190.451584,93.417542 
	C189.297928,84.141884 191.592056,78.426292 196.775177,71.870956 
	C204.385483,62.245838 211.497421,52.211269 218.473236,42.110504 
	C220.259064,39.524677 221.569702,36.138103 218.638977,32.924709 
	C214.798950,28.714314 212.250305,28.471258 206.708450,33.012936 
	C193.193863,44.088394 184.806580,58.576977 181.252258,75.421799 
	C179.330353,84.530228 172.420578,87.588524 166.206360,92.929985 
	C165.228165,86.607864 172.536438,80.384041 165.039505,75.947159 
	C159.252869,80.916779 153.728577,85.661079 148.204285,90.405388 
	C147.846939,90.005280 147.489594,89.605171 147.132248,89.205055 
	C149.724731,81.069366 157.075821,77.078766 163.137695,72.025368 
	C159.980896,68.269279 156.562408,68.303467 153.209564,70.683517 
	C149.165009,73.554588 145.393173,76.806763 141.445831,79.818680 
	C136.026917,83.953438 130.554047,88.017494 124.815506,91.809822 
M348.752289,159.102356 
	C357.567993,162.067474 366.349548,165.139725 375.209198,167.967148 
	C383.820312,170.715225 388.205017,175.798157 387.855621,184.779556 
	C387.618896,190.865402 386.052673,196.899521 384.985840,203.550217 
	C388.364105,201.675049 391.791565,200.047806 394.929504,197.980988 
	C405.854614,190.785049 415.320068,182.297958 418.462067,168.836761 
	C420.389435,160.579376 418.019470,150.483475 406.182800,148.725967 
	C403.566986,148.337555 400.918884,147.668747 398.500275,146.629562 
	C396.958099,145.966934 394.566650,144.235443 394.686462,143.239410 
	C395.527191,136.248505 392.850128,130.332703 389.857422,124.422928 
	C389.721558,124.154686 389.895874,123.744926 389.807159,123.435013 
	C388.044617,117.276833 388.329132,110.084129 380.247223,107.430626 
	C377.208618,106.432968 377.680206,103.594810 379.511780,101.230003 
	C382.978302,96.754257 386.393555,92.238800 389.857056,87.760681 
	C392.087921,84.876259 392.349030,82.000237 391.108246,78.436508 
	C390.181030,75.773430 390.105408,72.551590 390.567352,69.728584 
	C391.261597,65.485397 392.939758,61.413998 393.879791,57.198257 
	C397.028015,43.079578 405.053253,32.916817 418.785522,26.588959 
	C426.668915,24.398470 434.552307,22.207983 442.304321,20.054001 
	C442.398193,20.198822 442.289032,19.816591 442.052063,19.704485 
	C441.304962,19.351057 440.518585,19.073011 439.732208,18.811432 
	C420.940704,12.560822 401.663574,10.630382 382.067627,13.123525 
	C355.892792,16.453680 332.458435,26.007536 314.106201,45.626904 
	C299.695404,61.032722 292.792053,79.252022 296.022644,100.531715 
	C298.732300,118.380417 307.992859,132.652863 322.080261,143.423965 
	C329.477264,149.079681 338.160736,153.052872 346.519470,157.978165 
	C346.519470,157.978165 346.836426,158.024750 347.029724,158.588104 
	C347.404633,158.631958 347.779510,158.675812 348.752289,159.102356 
M480.751831,113.332817 
	C484.279419,104.046745 489.128815,95.031212 491.094849,85.425537 
	C497.881287,52.268356 469.940308,23.631506 436.766968,28.985846 
	C421.579712,31.437153 409.307892,38.350685 402.900604,52.983578 
	C400.316559,58.884987 398.648804,65.248360 397.159943,71.542458 
	C396.434723,74.608246 397.252594,78.008804 397.049744,81.237579 
	C396.874664,84.025177 396.950348,87.186554 395.653534,89.464447 
	C393.538727,93.179176 390.365234,96.284515 387.697266,99.693001 
	C385.288361,102.770584 385.311157,105.126419 389.208038,107.304108 
	C391.288818,108.466949 393.248840,110.701721 394.171082,112.909065 
	C396.280548,117.957733 395.280884,124.102974 399.961395,128.391113 
	C400.843719,129.199448 400.322113,131.794266 400.090118,133.516495 
	C399.428406,138.429581 401.213898,141.140350 406.113434,142.108154 
	C407.905334,142.462097 409.733856,142.694565 411.556793,142.816986 
	C420.815491,143.438736 425.650085,148.373169 425.982361,157.714569 
	C426.081543,160.503494 425.997650,163.298950 425.997650,166.391403 
	C427.782715,166.163818 429.270172,166.111160 430.689301,165.772293 
	C446.824219,161.919586 461.219238,154.551880 474.276184,144.374115 
	C477.380127,141.954651 478.363495,139.209152 478.041870,135.375336 
	C477.434540,128.135071 476.004089,120.720901 480.751831,113.332817 
M36.371563,70.934570 
	C33.945862,71.231987 31.520159,71.529404 28.397432,71.912277 
	C29.224926,69.896675 29.829548,68.406433 30.447430,66.921715 
	C34.658718,56.802307 38.777802,46.642723 43.150829,36.593662 
	C44.285286,33.986725 43.945763,32.244377 41.863842,30.503628 
	C39.235809,28.306259 36.706753,25.990513 34.488506,24.037130 
	C24.575953,49.833729 14.793088,75.292824 4.882864,101.083359 
	C6.589751,102.239281 8.858585,103.775757 11.492558,105.559509 
	C16.200392,96.336845 20.629669,87.659866 25.651398,77.822281 
	C28.255901,84.612267 31.003750,90.157066 32.442707,96.022942 
	C33.665409,101.007240 36.118958,104.327805 40.866119,106.729805 
	C41.802994,105.290077 42.900734,103.847481 43.742413,102.268394 
	C47.885174,94.496063 51.846367,86.623856 56.149364,78.942474 
	C57.070988,77.297256 59.163601,75.162209 60.683598,75.188255 
	C69.088326,75.332314 71.049889,69.070412 74.449089,62.435532 
	C70.072639,63.725742 66.709808,64.717133 62.465214,65.968475 
	C66.205009,58.025700 69.658066,50.910187 72.869682,43.687317 
	C73.514175,42.237862 73.983574,39.869370 73.252304,38.805065 
	C70.939461,35.438919 68.019043,32.490238 64.658905,28.598646 
	C60.658752,39.285587 56.888149,48.157879 54.045456,57.318130 
	C51.586174,65.242874 48.167694,71.161987 38.677273,70.498894 
	C38.208355,70.466141 37.717972,70.740540 36.371563,70.934570 
M227.075516,156.850220 
	C225.191193,151.186615 222.064529,149.122543 216.812607,149.940536 
	C214.704468,150.268890 212.562408,150.379303 210.527039,150.579926 
	C210.527039,157.808990 210.527039,165.361160 210.527039,172.913345 
	C211.034866,172.963318 211.542694,173.013306 212.050522,173.063293 
	C212.437729,170.706741 212.824936,168.350189 213.215744,165.971771 
	C222.569290,168.499329 226.635254,166.032700 227.075516,156.850220 
M243.213760,166.993256 
	C249.129318,165.720032 251.997650,161.778549 250.890259,156.444794 
	C249.853668,151.452148 245.317368,149.001160 239.720337,150.154587 
	C237.978165,150.513626 236.099533,150.210480 234.532181,150.210480 
	C234.532181,157.882034 234.532181,165.406006 234.532181,172.929962 
	C235.022263,172.953156 235.512344,172.976349 236.002426,172.999542 
	C236.297668,170.726593 236.592896,168.453644 236.906693,166.037811 
	C238.903046,166.387543 240.635803,166.691086 243.213760,166.993256 
M62.852131,164.271973 
	C62.820427,165.136826 62.788719,166.001663 62.757015,166.866516 
	C63.699188,166.160797 65.259445,165.609848 65.481346,164.723740 
	C66.744606,159.679214 70.680351,161.271927 73.925499,160.979752 
	C77.143280,160.690063 79.804924,161.006424 80.857162,164.804352 
	C81.113785,165.730591 82.505417,166.342361 83.375175,167.098724 
	C83.706352,166.803329 84.037521,166.507919 84.368698,166.212524 
	C81.392448,159.761276 78.533073,153.252411 75.391556,146.882690 
	C73.776260,143.607559 72.000313,144.308655 70.631340,147.281006 
	C68.130112,152.711716 65.610092,158.133804 62.852131,164.271973 
M201.282166,152.295273 
	C196.336334,148.505936 191.255478,148.904541 189.381165,153.228958 
	C198.154755,151.443634 198.568008,151.585342 199.105774,156.921783 
	C197.597351,156.921783 196.125366,156.940353 194.653976,156.918137 
	C190.903763,156.861526 187.759186,157.929504 188.113571,162.349228 
	C188.464737,166.728790 191.949402,167.187714 195.495026,166.966705 
	C197.623322,166.834045 199.742828,166.560379 202.729431,166.264587 
	C202.409775,162.046951 202.066330,157.515442 201.282166,152.295273 
M132.339569,150.834595 
	C129.207535,150.593140 126.075500,150.351700 122.858963,150.103745 
	C122.522392,147.918045 122.139511,145.431503 121.756622,142.944962 
	C121.341400,143.012756 120.926186,143.080536 120.510971,143.148315 
	C120.510971,151.044540 120.510971,158.940765 120.510971,166.836990 
	C121.038651,166.872726 121.566330,166.908478 122.094009,166.944214 
	C122.221916,164.131744 122.371750,161.320038 122.472206,158.506592 
	C122.598824,154.960434 123.845840,152.120316 127.824036,152.073135 
	C132.018494,152.023376 132.873138,155.081650 132.865967,158.569702 
	C132.860260,161.338043 132.864807,164.106415 132.864807,166.874786 
	C133.651749,166.828781 134.438690,166.782791 135.225632,166.736801 
	C134.920288,161.555313 137.288040,156.183960 132.339569,150.834595 
M142.650421,164.660828 
	C146.964325,165.614273 151.278214,166.567719 156.094894,167.632278 
	C156.094894,162.637573 156.748505,158.676819 155.843689,155.111572 
	C155.321625,153.054504 152.522720,150.688446 150.325546,150.132065 
	C146.047516,149.048721 144.383423,150.270584 143.312943,153.300415 
	C151.701935,151.251617 152.593613,151.561127 152.783401,156.587708 
	C141.781601,157.731323 141.781601,157.731323 142.650421,164.660828 
M109.595222,164.124786 
	C106.561516,165.772736 103.643089,164.897446 102.360603,162.198090 
	C101.381691,160.137711 101.221573,156.811798 102.240196,154.850006 
	C104.864273,149.796188 109.184593,152.953125 113.711380,154.317505 
	C111.435669,149.369049 107.864235,149.450729 104.605515,150.108932 
	C100.381248,150.962158 98.138062,154.101501 98.163872,158.382278 
	C98.189316,162.603073 100.307022,165.884720 104.518478,166.775513 
	C107.730103,167.454803 111.401550,167.732315 113.479797,162.807220 
	C111.970390,163.272736 111.136322,163.529968 109.595222,164.124786 
M164.859375,146.303131 
	C163.825027,147.908127 162.790680,149.513123 162.193512,150.439728 
	C162.893875,152.568375 163.750153,154.362488 164.034668,156.243088 
	C164.379639,158.523300 163.828094,160.996887 164.456360,163.156448 
	C164.883789,164.625671 166.469803,166.298767 167.906586,166.780411 
	C169.327316,167.256653 171.211258,166.351089 172.892014,166.051666 
	C166.460907,164.374527 166.248032,163.867294 167.476166,152.278870 
	C168.151779,152.196030 168.956863,152.181595 169.712738,151.981445 
	C170.502243,151.772354 171.244415,151.384521 171.333420,151.348389 
	C169.372269,149.545074 167.494370,147.818298 164.859375,146.303131 
z"/>
<path fill="#26D367" opacity="1.000000" stroke="none" 
	d="
M480.562012,113.662079 
	C476.004089,120.720901 477.434540,128.135071 478.041870,135.375336 
	C478.363495,139.209152 477.380127,141.954651 474.276184,144.374115 
	C461.219238,154.551880 446.824219,161.919586 430.689301,165.772293 
	C429.270172,166.111160 427.782715,166.163818 425.997650,166.391403 
	C425.997650,163.298950 426.081543,160.503494 425.982361,157.714569 
	C425.650085,148.373169 420.815491,143.438736 411.556793,142.816986 
	C409.733856,142.694565 407.905334,142.462097 406.113434,142.108154 
	C401.213898,141.140350 399.428406,138.429581 400.090118,133.516495 
	C400.322113,131.794266 400.843719,129.199448 399.961395,128.391113 
	C395.280884,124.102974 396.280548,117.957733 394.171082,112.909065 
	C393.248840,110.701721 391.288818,108.466949 389.208038,107.304108 
	C385.311157,105.126419 385.288361,102.770584 387.697266,99.693001 
	C390.365234,96.284515 393.538727,93.179176 395.653534,89.464447 
	C396.950348,87.186554 396.874664,84.025177 397.049744,81.237579 
	C397.252594,78.008804 396.434723,74.608246 397.159943,71.542458 
	C398.648804,65.248360 400.316559,58.884987 402.900604,52.983578 
	C409.307892,38.350685 421.579712,31.437153 436.766968,28.985846 
	C469.940308,23.631506 497.881287,52.268356 491.094849,85.425537 
	C489.128815,95.031212 484.279419,104.046745 480.562012,113.662079 
z"/>
<path fill="#085F55" opacity="1.000000" stroke="none" 
	d="
M418.124420,26.731991 
	C405.053253,32.916817 397.028015,43.079578 393.879791,57.198257 
	C392.939758,61.413998 391.261597,65.485397 390.567352,69.728584 
	C390.105408,72.551590 390.181030,75.773430 391.108246,78.436508 
	C392.349030,82.000237 392.087921,84.876259 389.857056,87.760681 
	C386.393555,92.238800 382.978302,96.754257 379.511780,101.230003 
	C377.680206,103.594810 377.208618,106.432968 380.247223,107.430626 
	C388.329132,110.084129 388.044617,117.276833 389.807159,123.435013 
	C389.895874,123.744926 389.721558,124.154686 389.857422,124.422928 
	C392.850128,130.332703 395.527191,136.248505 394.686462,143.239410 
	C394.566650,144.235443 396.958099,145.966934 398.500275,146.629562 
	C400.918884,147.668747 403.566986,148.337555 406.182800,148.725967 
	C418.019470,150.483475 420.389435,160.579376 418.462067,168.836761 
	C415.320068,182.297958 405.854614,190.785049 394.929504,197.980988 
	C391.791565,200.047806 388.364105,201.675049 384.985840,203.550217 
	C386.052673,196.899521 387.618896,190.865402 387.855621,184.779556 
	C388.205017,175.798157 383.820312,170.715225 375.209198,167.967148 
	C366.349548,165.139725 357.567993,162.067474 348.311523,158.673828 
	C347.526001,158.171783 347.181213,158.098267 346.836426,158.024750 
	C346.836426,158.024750 346.519470,157.978165 346.283386,157.556030 
	C338.643646,150.545898 330.437927,144.651215 324.012604,137.217606 
	C312.586151,123.998062 307.500763,108.153893 310.377167,90.636726 
	C314.090607,68.021759 327.929260,52.515175 346.969574,41.017094 
	C360.841644,32.640015 375.935181,27.638916 391.983643,26.265493 
	C400.620667,25.526340 409.406006,26.520117 418.124420,26.731991 
M338.980011,129.066101 
	C342.125275,129.481705 345.445282,129.343201 346.330841,125.799194 
	C346.901276,123.516357 346.720245,120.017509 345.319275,118.559647 
	C343.919800,117.103355 340.394257,116.727211 338.132263,117.266922 
	C333.677246,118.329880 332.386505,126.095581 338.980011,129.066101 
M361.674011,127.531502 
	C364.617889,125.214584 365.701965,122.167572 362.739655,119.614868 
	C361.442566,118.497139 358.148407,118.763649 356.293823,119.592979 
	C355.260712,120.054955 354.381958,123.739044 355.093903,124.603073 
	C356.410004,126.200333 358.946869,126.791710 361.674011,127.531502 
M374.794312,119.264091 
	C373.984070,120.988167 372.790222,122.668365 372.585114,124.461662 
	C372.519073,125.038826 375.171631,126.634918 376.373016,126.445946 
	C377.527618,126.264336 379.471527,123.917198 379.214844,123.324974 
	C378.511200,121.701210 376.832947,120.499817 374.794312,119.264091 
z"/>
<path fill="#2CD46B" opacity="1.000000" stroke="none" 
	d="
M133.614716,91.612228 
	C130.353043,93.887711 127.084114,96.152855 123.831886,98.441742 
	C120.909225,100.498695 117.807396,100.122665 115.795944,97.657669 
	C114.499153,96.068481 114.017723,93.192390 114.324829,91.059189 
	C114.805511,87.720108 116.262703,84.521614 117.721817,79.966133 
	C112.216270,83.877213 107.656898,86.834892 103.416176,90.194771 
	C97.095367,95.202682 90.608765,99.587502 82.247223,100.391129 
	C77.024605,100.893074 71.237289,96.201874 71.023949,90.907578 
	C70.597832,80.332947 81.499619,68.977921 92.024353,68.820404 
	C96.596558,68.751968 99.682510,71.341972 100.523277,75.048241 
	C100.999916,77.149307 98.930809,80.700264 96.955833,82.294342 
	C93.396759,85.167007 88.979568,86.953934 85.073853,89.435265 
	C84.068329,90.074074 83.633026,91.610443 82.935776,92.734482 
	C84.114273,93.351173 85.312752,94.506348 86.466766,94.463531 
	C88.396004,94.391953 90.582733,93.993439 92.160156,92.964561 
	C99.001305,88.502350 105.661140,83.762169 112.453598,79.077042 
	C106.594658,72.742355 106.680145,71.802475 113.489662,63.997959 
	C114.397156,64.375626 116.056114,64.553551 116.324806,65.260139 
	C118.220016,70.244072 123.265976,71.524796 126.686462,74.666519 
	C127.881577,75.764229 128.614136,78.334297 128.263123,79.950806 
	C127.459595,83.651154 125.858017,87.178192 124.400497,91.347763 
	C124.310265,92.206749 124.400024,92.493584 124.489792,92.780426 
	C124.694618,92.557571 124.899452,92.334709 125.104286,92.111847 
	C130.554047,88.017494 136.026917,83.953438 141.445831,79.818680 
	C145.393173,76.806763 149.165009,73.554588 153.209564,70.683517 
	C156.562408,68.303467 159.980896,68.269279 163.137695,72.025368 
	C157.075821,77.078766 149.724731,81.069366 147.132248,89.205055 
	C147.489594,89.605171 147.846939,90.005280 148.204285,90.405388 
	C153.728577,85.661079 159.252869,80.916779 165.039505,75.947159 
	C172.536438,80.384041 165.228165,86.607864 166.206360,92.929985 
	C172.420578,87.588524 179.330353,84.530228 181.252258,75.421799 
	C184.806580,58.576977 193.193863,44.088394 206.708450,33.012936 
	C212.250305,28.471258 214.798950,28.714314 218.638977,32.924709 
	C221.569702,36.138103 220.259064,39.524677 218.473236,42.110504 
	C211.497421,52.211269 204.385483,62.245838 196.775177,71.870956 
	C191.592056,78.426292 189.297928,84.141884 190.451584,93.417542 
	C192.201553,92.547424 193.947433,92.013397 195.280777,90.958107 
	C200.829269,86.566696 206.301758,82.075462 211.709198,77.510765 
	C216.758316,73.248550 221.434921,68.313423 228.355972,69.121635 
	C233.935532,59.375114 239.104324,49.553947 245.092789,40.260994 
	C247.616562,36.344593 251.736755,33.386127 255.383514,30.289274 
	C257.787659,28.247656 260.375916,29.160078 262.536102,31.125359 
	C264.669189,33.066010 266.522644,34.971844 265.312164,38.424324 
	C261.059814,50.552734 252.973328,60.155796 244.264587,69.040115 
	C237.638657,75.799644 236.509460,83.684341 236.908173,93.268700 
	C240.574631,90.464706 244.165375,87.551247 247.957413,84.928864 
	C248.985428,84.217949 250.621735,84.386681 251.978851,84.151672 
	C252.229736,84.824669 252.480621,85.497658 252.731506,86.170654 
	C248.229340,89.796234 243.829025,93.558044 239.202408,97.017151 
	C231.202133,102.998550 224.856827,97.232971 224.449860,89.451248 
	C220.863846,92.028839 217.503357,94.708748 213.889450,96.986557 
	C206.521164,101.630676 203.690826,100.174080 202.755356,91.887146 
	C198.177414,94.493797 193.684753,97.728943 188.686920,99.649399 
	C185.577225,100.844322 179.965012,94.654236 178.073135,88.874908 
	C174.790878,91.518341 171.718109,94.257362 168.382736,96.626747 
	C160.304398,102.365456 156.236633,100.775108 154.455353,91.173256 
	C150.938782,93.449966 147.587189,95.855705 144.017731,97.876663 
	C138.376587,101.070564 135.807343,99.696526 134.689575,92.554962 
	C134.762314,91.693886 134.704834,91.411659 134.647354,91.129425 
	C134.303146,91.290359 133.958923,91.451294 133.614716,91.612228 
M253.370789,48.822147 
	C255.336243,44.752361 257.301697,40.682579 259.267120,36.612793 
	C258.489075,36.229408 257.711029,35.846024 256.932983,35.462635 
	C252.783493,43.064945 248.634003,50.667255 244.484512,58.269566 
	C245.032333,58.620537 245.580154,58.971508 246.127960,59.322479 
	C248.417984,56.032005 250.708008,52.741528 253.370789,48.822147 
M208.527069,40.983101 
	C204.958435,47.115578 201.389801,53.248055 197.821167,59.380531 
	C198.395142,59.707306 198.969116,60.034081 199.543091,60.360851 
	C204.966751,53.254456 210.069839,45.956558 213.230804,37.498535 
	C212.877701,37.256516 212.524612,37.014496 212.171509,36.772472 
	C211.099197,37.978973 210.026871,39.185471 208.527069,40.983101 
M219.858810,81.381416 
	C218.047745,83.932114 216.236679,86.482803 214.425613,89.033501 
	C223.312332,86.430817 226.608734,82.456596 226.487289,75.355858 
	C224.188034,77.426208 222.274780,79.148994 219.858810,81.381416 
M85.101616,82.424309 
	C85.229424,82.848679 85.357239,83.273056 85.485046,83.697426 
	C88.970497,81.544502 92.042381,79.123390 92.089523,74.740891 
	C91.643822,74.439507 91.198120,74.138123 90.752419,73.836739 
	C88.959549,76.482178 87.166672,79.127625 85.101616,82.424309 
z"/>
<path fill="#239DB7" opacity="1.000000" stroke="none" 
	d="
M418.454956,26.660475 
	C409.406006,26.520117 400.620667,25.526340 391.983643,26.265493 
	C375.935181,27.638916 360.841644,32.640015 346.969574,41.017094 
	C327.929260,52.515175 314.090607,68.021759 310.377167,90.636726 
	C307.500763,108.153893 312.586151,123.998062 324.012604,137.217606 
	C330.437927,144.651215 338.643646,150.545898 346.155304,157.459869 
	C338.160736,153.052872 329.477264,149.079681 322.080261,143.423965 
	C307.992859,132.652863 298.732300,118.380417 296.022644,100.531715 
	C292.792053,79.252022 299.695404,61.032722 314.106201,45.626904 
	C332.458435,26.007536 355.892792,16.453680 382.067627,13.123525 
	C401.663574,10.630382 420.940704,12.560822 439.732208,18.811432 
	C440.518585,19.073011 441.304962,19.351057 442.052063,19.704485 
	C442.289032,19.816591 442.398193,20.198822 442.304321,20.054001 
	C434.552307,22.207983 426.668915,24.398470 418.454956,26.660475 
z"/>
<path fill="#2BD46A" opacity="1.000000" stroke="none" 
	d="
M36.804573,70.903236 
	C37.717972,70.740540 38.208355,70.466141 38.677273,70.498894 
	C48.167694,71.161987 51.586174,65.242874 54.045456,57.318130 
	C56.888149,48.157879 60.658752,39.285587 64.658905,28.598646 
	C68.019043,32.490238 70.939461,35.438919 73.252304,38.805065 
	C73.983574,39.869370 73.514175,42.237862 72.869682,43.687317 
	C69.658066,50.910187 66.205009,58.025700 62.465214,65.968475 
	C66.709808,64.717133 70.072639,63.725742 74.449089,62.435532 
	C71.049889,69.070412 69.088326,75.332314 60.683598,75.188255 
	C59.163601,75.162209 57.070988,77.297256 56.149364,78.942474 
	C51.846367,86.623856 47.885174,94.496063 43.742413,102.268394 
	C42.900734,103.847481 41.802994,105.290077 40.866119,106.729805 
	C36.118958,104.327805 33.665409,101.007240 32.442707,96.022942 
	C31.003750,90.157066 28.255901,84.612267 25.651398,77.822281 
	C20.629669,87.659866 16.200392,96.336845 11.492558,105.559509 
	C8.858585,103.775757 6.589751,102.239281 4.882864,101.083359 
	C14.793088,75.292824 24.575953,49.833729 34.488506,24.037130 
	C36.706753,25.990513 39.235809,28.306259 41.863842,30.503628 
	C43.945763,32.244377 44.285286,33.986725 43.150829,36.593662 
	C38.777802,46.642723 34.658718,56.802307 30.447430,66.921715 
	C29.829548,68.406433 29.224926,69.896675 28.397432,71.912277 
	C31.520159,71.529404 33.945862,71.231987 36.804573,70.903236 
M42.363842,84.823799 
	C43.276974,82.753273 44.190109,80.682739 45.534370,77.634644 
	C40.303284,78.104248 35.968544,78.493393 31.232046,78.918594 
	C33.704140,83.872383 35.938347,88.349464 38.409306,93.300980 
	C39.828346,90.289719 40.950844,87.907738 42.363842,84.823799 
z"/>
<path fill="#37A7BF" opacity="1.000000" stroke="none" 
	d="
M227.102005,157.263245 
	C226.635254,166.032700 222.569290,168.499329 213.215744,165.971771 
	C212.824936,168.350189 212.437729,170.706741 212.050522,173.063293 
	C211.542694,173.013306 211.034866,172.963318 210.527039,172.913345 
	C210.527039,165.361160 210.527039,157.808990 210.527039,150.579926 
	C212.562408,150.379303 214.704468,150.268890 216.812607,149.940536 
	C222.064529,149.122543 225.191193,151.186615 227.102005,157.263245 
M223.961884,156.069687 
	C222.405075,152.858444 220.119675,151.052338 216.443069,152.574417 
	C212.877045,154.050720 211.778656,157.333633 213.210938,160.313293 
	C214.181580,162.332504 217.283325,164.683151 219.293472,164.563278 
	C223.420456,164.317184 224.712524,160.854263 223.961884,156.069687 
z"/>
<path fill="#31A4BD" opacity="1.000000" stroke="none" 
	d="
M242.791168,166.993958 
	C240.635803,166.691086 238.903046,166.387543 236.906693,166.037811 
	C236.592896,168.453644 236.297668,170.726593 236.002426,172.999542 
	C235.512344,172.976349 235.022263,172.953156 234.532181,172.929962 
	C234.532181,165.406006 234.532181,157.882034 234.532181,150.210480 
	C236.099533,150.210480 237.978165,150.513626 239.720337,150.154587 
	C245.317368,149.001160 249.853668,151.452148 250.890259,156.444794 
	C251.997650,161.778549 249.129318,165.720032 242.791168,166.993958 
M246.018097,163.489944 
	C246.433670,160.603149 247.774414,157.440613 247.018127,154.903061 
	C246.174026,152.070847 242.999222,151.052780 239.934494,152.689224 
	C236.326599,154.615662 235.727493,157.905365 237.184464,161.236679 
	C238.736328,164.784836 241.656387,166.005295 246.018097,163.489944 
z"/>
<path fill="#31A5BD" opacity="1.000000" stroke="none" 
	d="
M62.975021,163.915726 
	C65.610092,158.133804 68.130112,152.711716 70.631340,147.281006 
	C72.000313,144.308655 73.776260,143.607559 75.391556,146.882690 
	C78.533073,153.252411 81.392448,159.761276 84.368698,166.212524 
	C84.037521,166.507919 83.706352,166.803329 83.375175,167.098724 
	C82.505417,166.342361 81.113785,165.730591 80.857162,164.804352 
	C79.804924,161.006424 77.143280,160.690063 73.925499,160.979752 
	C70.680351,161.271927 66.744606,159.679214 65.481346,164.723740 
	C65.259445,165.609848 63.699188,166.160797 62.757011,166.866516 
	C62.788719,166.001663 62.820427,165.136826 62.975021,163.915726 
M76.780174,155.772156 
	C75.651352,153.544876 74.522537,151.317596 72.955223,148.225128 
	C71.218590,152.342255 69.938835,155.376236 68.444130,158.919815 
	C71.703331,158.919815 74.024002,159.012451 76.318977,158.811447 
	C76.632591,158.783981 76.817978,157.292297 76.780174,155.772156 
z"/>
<path fill="#30A4BD" opacity="1.000000" stroke="none" 
	d="
M201.502533,152.639587 
	C202.066330,157.515442 202.409775,162.046951 202.729431,166.264587 
	C199.742828,166.560379 197.623322,166.834045 195.495026,166.966705 
	C191.949402,167.187714 188.464737,166.728790 188.113571,162.349228 
	C187.759186,157.929504 190.903763,156.861526 194.653976,156.918137 
	C196.125366,156.940353 197.597351,156.921783 199.105774,156.921783 
	C198.568008,151.585342 198.154755,151.443634 189.381165,153.228958 
	C191.255478,148.904541 196.336334,148.505936 201.502533,152.639587 
M199.786377,161.019791 
	C197.880768,156.849121 194.755707,159.227386 192.168640,159.856827 
	C191.650513,159.982910 191.653397,162.250336 191.416046,163.530411 
	C193.624847,163.582596 195.843033,163.761017 198.035873,163.598190 
	C198.583908,163.557480 199.050339,162.417786 199.786377,161.019791 
z"/>
<path fill="#27A0BA" opacity="1.000000" stroke="none" 
	d="
M132.679001,151.059326 
	C137.288040,156.183960 134.920288,161.555313 135.225632,166.736801 
	C134.438690,166.782791 133.651749,166.828781 132.864807,166.874786 
	C132.864807,164.106415 132.860260,161.338043 132.865967,158.569702 
	C132.873138,155.081650 132.018494,152.023376 127.824036,152.073135 
	C123.845840,152.120316 122.598824,154.960434 122.472206,158.506592 
	C122.371750,161.320038 122.221916,164.131744 122.094009,166.944214 
	C121.566330,166.908478 121.038651,166.872726 120.510971,166.836990 
	C120.510971,158.940765 120.510971,151.044540 120.510971,143.148315 
	C120.926186,143.080536 121.341400,143.012756 121.756622,142.944962 
	C122.139511,145.431503 122.522392,147.918045 122.858963,150.103745 
	C126.075500,150.351700 129.207535,150.593140 132.679001,151.059326 
z"/>
<path fill="#30A4BD" opacity="1.000000" stroke="none" 
	d="
M142.444336,164.311951 
	C141.781601,157.731323 141.781601,157.731323 152.783401,156.587708 
	C152.593613,151.561127 151.701935,151.251617 143.312943,153.300415 
	C144.383423,150.270584 146.047516,149.048721 150.325546,150.132065 
	C152.522720,150.688446 155.321625,153.054504 155.843689,155.111572 
	C156.748505,158.676819 156.094894,162.637573 156.094894,167.632278 
	C151.278214,166.567719 146.964325,165.614273 142.444336,164.311951 
M151.328903,164.051056 
	C152.237564,162.673553 153.146225,161.296051 154.054886,159.918564 
	C153.782440,159.486954 153.509995,159.055359 153.237549,158.623764 
	C150.612335,159.155075 147.952347,159.572769 145.403137,160.352554 
	C145.060394,160.457382 144.973083,163.221054 145.283401,163.333817 
	C146.989883,163.953934 148.856888,164.132355 151.328903,164.051056 
z"/>
<path fill="#35A6BE" opacity="1.000000" stroke="none" 
	d="
M109.948746,163.955994 
	C111.136322,163.529968 111.970390,163.272736 113.479797,162.807220 
	C111.401550,167.732315 107.730103,167.454803 104.518478,166.775513 
	C100.307022,165.884720 98.189316,162.603073 98.163872,158.382278 
	C98.138062,154.101501 100.381248,150.962158 104.605515,150.108932 
	C107.864235,149.450729 111.435669,149.369049 113.711380,154.317505 
	C109.184593,152.953125 104.864273,149.796188 102.240196,154.850006 
	C101.221573,156.811798 101.381691,160.137711 102.360603,162.198090 
	C103.643089,164.897446 106.561516,165.772736 109.948746,163.955994 
z"/>
<path fill="#34A5BE" opacity="1.000000" stroke="none" 
	d="
M165.237915,146.197327 
	C167.494370,147.818298 169.372269,149.545074 171.333420,151.348389 
	C171.244415,151.384521 170.502243,151.772354 169.712738,151.981445 
	C168.956863,152.181595 168.151779,152.196030 167.476166,152.278870 
	C166.248032,163.867294 166.460907,164.374527 172.892014,166.051666 
	C171.211258,166.351089 169.327316,167.256653 167.906586,166.780411 
	C166.469803,166.298767 164.883789,164.625671 164.456360,163.156448 
	C163.828094,160.996887 164.379639,158.523300 164.034668,156.243088 
	C163.750153,154.362488 162.893875,152.568375 162.193512,150.439728 
	C162.790680,149.513123 163.825027,147.908127 165.237915,146.197327 
z"/>
<path fill="#239DB7" opacity="1.000000" stroke="none" 
	d="
M346.933075,158.306427 
	C347.181213,158.098267 347.526001,158.171783 348.012604,158.482483 
	C347.779510,158.675812 347.404633,158.631958 346.933075,158.306427 
z"/>
<path fill="#F6F9F8" opacity="1.000000" stroke="none" 
	d="
M338.579895,128.980652 
	C332.386505,126.095581 333.677246,118.329880 338.132263,117.266922 
	C340.394257,116.727211 343.919800,117.103355 345.319275,118.559647 
	C346.720245,120.017509 346.901276,123.516357 346.330841,125.799194 
	C345.445282,129.343201 342.125275,129.481705 338.579895,128.980652 
z"/>
<path fill="#F0F5F5" opacity="1.000000" stroke="none" 
	d="
M361.324615,127.666794 
	C358.946869,126.791710 356.410004,126.200333 355.093903,124.603073 
	C354.381958,123.739044 355.260712,120.054955 356.293823,119.592979 
	C358.148407,118.763649 361.442566,118.497139 362.739655,119.614868 
	C365.701965,122.167572 364.617889,125.214584 361.324615,127.666794 
z"/>
<path fill="#E9F1F0" opacity="1.000000" stroke="none" 
	d="
M375.167419,119.197662 
	C376.832947,120.499817 378.511200,121.701210 379.214844,123.324974 
	C379.471527,123.917198 377.527618,126.264336 376.373016,126.445946 
	C375.171631,126.634918 372.519073,125.038826 372.585114,124.461662 
	C372.790222,122.668365 373.984070,120.988167 375.167419,119.197662 
z"/>
<path fill="#EEFCF3" opacity="1.000000" stroke="none" 
	d="
M253.184418,49.136597 
	C250.708008,52.741528 248.417984,56.032005 246.127960,59.322479 
	C245.580154,58.971508 245.032333,58.620537 244.484512,58.269566 
	C248.634003,50.667255 252.783493,43.064945 256.932983,35.462635 
	C257.711029,35.846024 258.489075,36.229408 259.267120,36.612793 
	C257.301697,40.682579 255.336243,44.752361 253.184418,49.136597 
z"/>
<path fill="#EDFBF2" opacity="1.000000" stroke="none" 
	d="
M208.740814,40.687538 
	C210.026871,39.185471 211.099197,37.978973 212.171509,36.772472 
	C212.524612,37.014496 212.877701,37.256516 213.230804,37.498535 
	C210.069839,45.956558 204.966751,53.254456 199.543091,60.360851 
	C198.969116,60.034081 198.395142,59.707306 197.821167,59.380531 
	C201.389801,53.248055 204.958435,47.115578 208.740814,40.687538 
z"/>
<path fill="#F4FDF8" opacity="1.000000" stroke="none" 
	d="
M220.110168,81.126602 
	C222.274780,79.148994 224.188034,77.426208 226.487289,75.355858 
	C226.608734,82.456596 223.312332,86.430817 214.425613,89.033501 
	C216.236679,86.482803 218.047745,83.932114 220.110168,81.126602 
z"/>
<path fill="#EFFCF4" opacity="1.000000" stroke="none" 
	d="
M85.237709,82.098694 
	C87.166672,79.127625 88.959549,76.482178 90.752419,73.836739 
	C91.198120,74.138123 91.643822,74.439507 92.089523,74.740891 
	C92.042381,79.123390 88.970497,81.544502 85.485046,83.697426 
	C85.357239,83.273056 85.229424,82.848679 85.237709,82.098694 
z"/>
<path fill="none" opacity="1.000000" stroke="none" 
	d="
M124.959900,91.960831 
	C124.899452,92.334709 124.694618,92.557571 124.489792,92.780426 
	C124.400024,92.493584 124.310265,92.206749 124.365585,91.721970 
	C124.510674,91.524025 124.815506,91.809822 124.959900,91.960831 
z"/>
<path fill="none" opacity="1.000000" stroke="none" 
	d="
M133.837189,91.830399 
	C133.958923,91.451294 134.303146,91.290359 134.647354,91.129425 
	C134.704834,91.411659 134.762314,91.693886 134.671097,92.221024 
	C134.368164,92.326805 134.213898,92.187691 133.837189,91.830399 
z"/>
<path fill="#F5FDF8" opacity="1.000000" stroke="none" 
	d="
M42.218594,85.174774 
	C40.950844,87.907738 39.828346,90.289719 38.409306,93.300980 
	C35.938347,88.349464 33.704140,83.872383 31.232046,78.918594 
	C35.968544,78.493393 40.303284,78.104248 45.534370,77.634644 
	C44.190109,80.682739 43.276974,82.753273 42.218594,85.174774 
z"/>
<path fill="#F9FCFD" opacity="1.000000" stroke="none" 
	d="
M224.042969,156.471649 
	C224.712524,160.854263 223.420456,164.317184 219.293472,164.563278 
	C217.283325,164.683151 214.181580,162.332504 213.210938,160.313293 
	C211.778656,157.333633 212.877045,154.050720 216.443069,152.574417 
	C220.119675,151.052338 222.405075,152.858444 224.042969,156.471649 
z"/>
<path fill="#F7FBFC" opacity="1.000000" stroke="none" 
	d="
M245.690720,163.712128 
	C241.656387,166.005295 238.736328,164.784836 237.184464,161.236679 
	C235.727493,157.905365 236.326599,154.615662 239.934494,152.689224 
	C242.999222,151.052780 246.174026,152.070847 247.018127,154.903061 
	C247.774414,157.440613 246.433670,160.603149 245.690720,163.712128 
z"/>
<path fill="#EFF8FA" opacity="1.000000" stroke="none" 
	d="
M76.921455,156.125351 
	C76.817978,157.292297 76.632591,158.783981 76.318977,158.811447 
	C74.024002,159.012451 71.703331,158.919815 68.444130,158.919815 
	C69.938835,155.376236 71.218590,152.342255 72.955223,148.225128 
	C74.522537,151.317596 75.651352,153.544876 76.921455,156.125351 
z"/>
<path fill="#F2F9FB" opacity="1.000000" stroke="none" 
	d="
M199.670319,161.401489 
	C199.050339,162.417786 198.583908,163.557480 198.035873,163.598190 
	C195.843033,163.761017 193.624847,163.582596 191.416046,163.530411 
	C191.653397,162.250336 191.650513,159.982910 192.168640,159.856827 
	C194.755707,159.227386 197.880768,156.849121 199.670319,161.401489 
z"/>
<path fill="#F0F9FA" opacity="1.000000" stroke="none" 
	d="
M150.998840,164.256714 
	C148.856888,164.132355 146.989883,163.953934 145.283401,163.333817 
	C144.973083,163.221054 145.060394,160.457382 145.403137,160.352554 
	C147.952347,159.572769 150.612335,159.155075 153.237549,158.623764 
	C153.509995,159.055359 153.782440,159.486954 154.054886,159.918564 
	C153.146225,161.296051 152.237564,162.673553 150.998840,164.256714 
z"/>
</svg>